<svg width="80" height="80" viewBox="0 0 80 80" fill="none" xmlns="http://www.w3.org/2000/svg">
<path fill-rule="evenodd" clip-rule="evenodd" d="M45.8497 14.658C46.727 13.7807 48.1494 13.7807 49.0272 14.658L79.342 44.9779C80.2193 45.8552 80.2193 47.2781 79.342 48.1559L76.5703 50.9277L43.0784 17.4308L45.8497 14.658ZM52.2241 33.3907L33.7649 14.9372C32.8876 14.0598 31.4637 14.0598 30.5874 14.9382L0.657853 44.8861C-0.219455 45.7639 -0.219454 47.1868 0.658874 48.0641L17.5308 64.9299C18.4082 65.8067 19.8285 65.8077 20.7073 64.931L39.9652 45.7103L59.2798 64.9422C60.1556 65.8144 61.5703 65.8154 62.4481 64.9442L72.9962 54.4742L52.2241 33.3907ZM25.1352 46.1594C21.6602 46.1594 18.9558 43.33 18.9558 39.98C18.9558 36.6285 21.6602 33.8 25.1352 33.8C28.6102 33.8 31.3146 36.629 31.3146 39.98C31.3136 43.331 28.6092 46.1594 25.1352 46.1594ZM26.998 39.7355C27.2272 39.9646 27.3445 40.2244 27.3507 40.5143C27.3568 40.8042 27.2491 41.0915 27.0276 41.3763C27.0189 41.3967 27.0205 41.413 27.0322 41.4242L27.3236 41.7075C27.3379 41.7223 27.3435 41.7396 27.341 41.7601C27.344 41.781 27.3379 41.7978 27.3236 41.8126L26.9837 42.152C26.9694 42.1663 26.95 42.1735 26.9271 42.1735C26.9097 42.1735 26.8934 42.1663 26.8791 42.152L26.5918 41.856C26.58 41.8443 26.5642 41.8427 26.5438 41.8514L25.9661 42.3725L25.6027 41.981L26.4438 41.1701C26.6152 40.9991 26.6831 40.8088 26.6918 40.6495C26.7035 40.4872 26.6499 40.3459 26.531 40.2275C26.4499 40.1458 26.3585 40.1009 26.257 40.0922C26.1523 40.081 26.0334 40.0983 25.8997 40.1448C25.7665 40.1851 25.5762 40.2565 25.3296 40.3581C25.0597 40.477 24.8305 40.5643 24.6417 40.6194C24.4534 40.674 24.262 40.6858 24.0675 40.6536C23.8705 40.6194 23.6858 40.5163 23.5148 40.3448C23.2943 40.1244 23.1795 39.8763 23.1708 39.6007C23.1652 39.3221 23.2606 39.049 23.4582 38.7821C23.4668 38.7617 23.4653 38.7459 23.4541 38.7341L23.1234 38.4208C23.1091 38.406 23.1019 38.3902 23.1019 38.3728C23.1019 38.3493 23.1091 38.331 23.1234 38.3162L23.4633 37.9768C23.4776 37.9625 23.4949 37.9564 23.5153 37.9594C23.5362 37.9564 23.5536 37.9625 23.5679 37.9768L23.8858 38.3121C23.8976 38.3233 23.9134 38.3248 23.9338 38.3162L24.3569 37.8931L24.7397 38.2758L24.163 38.8525C23.8731 39.1429 23.8379 39.3052 23.8205 39.4563C23.8032 39.6074 23.8552 39.7436 23.9772 39.8656C24.0645 39.9524 24.1574 40.0019 24.2559 40.0136C24.3574 40.0218 24.4748 40.006 24.6085 39.9656C24.7417 39.9192 24.9346 39.8391 25.1873 39.7263C25.4629 39.6074 25.6905 39.5221 25.8706 39.4696C26.0533 39.4144 26.2447 39.4032 26.4453 39.4349C26.6423 39.464 26.827 39.564 26.998 39.7355Z" fill="white"/>
</svg>
