<svg width="21" height="30" viewBox="0 0 21 30" fill="none" xmlns="http://www.w3.org/2000/svg">
<path d="M12.8333 18.6084C12.8333 17.8746 12.6055 17.248 12.1497 16.7288C11.694 16.2096 11.1441 15.95 10.5 15.95C9.8559 15.95 9.30599 16.2096 8.85026 16.7288C8.39453 17.248 8.16667 17.8746 8.16667 18.6084C8.16667 19.1207 8.28212 19.5845 8.51302 19.9999C8.74392 20.4153 9.05382 20.7407 9.44271 20.9761L8.1849 25.7322C8.12413 25.9399 8.15451 26.1337 8.27604 26.3137C8.39757 26.4937 8.55556 26.5837 8.75 26.5837H12.25C12.4444 26.5837 12.6024 26.4937 12.724 26.3137C12.8455 26.1337 12.8759 25.9399 12.8151 25.7322L11.5573 20.9761C11.9462 20.7407 12.2561 20.4153 12.487 19.9999C12.7179 19.5845 12.8333 19.1207 12.8333 18.6084ZM5.83333 13.2915H15.1667V9.30383C15.1667 7.83615 14.7109 6.58308 13.7995 5.54462C12.888 4.50617 11.7882 3.98694 10.5 3.98694C9.21181 3.98694 8.11198 4.50617 7.20052 5.54462C6.28906 6.58308 5.83333 7.83615 5.83333 9.30383V13.2915ZM21 15.2853V27.2484C21 27.8022 20.8299 28.273 20.4896 28.6607C20.1493 29.0483 19.7361 29.2422 19.25 29.2422H1.75C1.26389 29.2422 0.850694 29.0483 0.510417 28.6607C0.170139 28.273 0 27.8022 0 27.2484V15.2853C0 14.7315 0.170139 14.2607 0.510417 13.873C0.850694 13.4853 1.26389 13.2915 1.75 13.2915H2.33333V9.30383C2.33333 6.75616 3.13542 4.56847 4.73958 2.74079C6.34375 0.913109 8.26389 -0.000732422 10.5 -0.000732422C12.7361 -0.000732422 14.6562 0.913109 16.2604 2.74079C17.8646 4.56847 18.6667 6.75616 18.6667 9.30383V13.2915H19.25C19.7361 13.2915 20.1493 13.4853 20.4896 13.873C20.8299 14.2607 21 14.7315 21 15.2853Z" fill="white"/>
</svg>
